<?xml version="1.0" encoding="UTF-8" standalone="no"?>
<!DOCTYPE svg PUBLIC "-//W3C//DTD SVG 1.1//EN"
 "http://www.w3.org/Graphics/SVG/1.1/DTD/svg11.dtd">
<!-- Generated by graphviz version 2.40.1 (20161225.0304)
 -->
<!-- Title: dependencies Pages: 1 -->
<svg width="900pt" height="399pt"
 viewBox="0.00 0.00 900.00 398.59" xmlns="http://www.w3.org/2000/svg" xmlns:xlink="http://www.w3.org/1999/xlink">
<g id="graph0" class="graph" transform="scale(1 1) rotate(0) translate(4 394.5901)">
<title>dependencies</title>
<polygon fill="#ffffff" stroke="transparent" points="-4,4 -4,-394.5901 896,-394.5901 896,4 -4,4"/>
<text text-anchor="start" x="425.0091" y="-42.4" font-family="sans-serif" font-weight="bold" font-size="14.00" fill="#000000">Legend</text>
<polygon fill="#ffffb3" stroke="transparent" points="212,-10 212,-30 232,-30 232,-10 212,-10"/>
<text text-anchor="start" x="235.629" y="-15.4" font-family="sans-serif" font-size="14.00" fill="#000000"> &#160;Declarations</text>
<polygon fill="#8dd3c7" stroke="transparent" points="325,-10 325,-30 345,-30 345,-10 325,-10"/>
<text text-anchor="start" x="348.7251" y="-15.4" font-family="sans-serif" font-size="14.00" fill="#000000"> &#160;Module</text>
<polygon fill="#80b1d3" stroke="transparent" points="411,-10 411,-30 431,-30 431,-10 411,-10"/>
<text text-anchor="start" x="434.7812" y="-15.4" font-family="sans-serif" font-size="14.00" fill="#000000"> &#160;Bootstrap</text>
<polygon fill="#fdb462" stroke="transparent" points="508,-10 508,-30 528,-30 528,-10 508,-10"/>
<text text-anchor="start" x="531.6732" y="-15.4" font-family="sans-serif" font-size="14.00" fill="#000000"> &#160;Providers</text>
<polygon fill="#fb8072" stroke="transparent" points="604,-10 604,-30 624,-30 624,-10 604,-10"/>
<text text-anchor="start" x="627.7258" y="-15.4" font-family="sans-serif" font-size="14.00" fill="#000000"> &#160;Exports</text>
<g id="clust1" class="cluster">
<title>cluster_AppModule</title>
<polygon fill="none" stroke="#000000" stroke-dasharray="1,5" points="598,-184.5901 598,-382.5901 884,-382.5901 884,-184.5901 598,-184.5901"/>
</g>
<g id="clust2" class="cluster">
<title>cluster_AppModule_declarations</title>
<polygon fill="none" stroke="#000000" points="754,-192.5901 754,-244.5901 876,-244.5901 876,-192.5901 754,-192.5901"/>
</g>
<g id="clust4" class="cluster">
<title>cluster_AppModule_imports</title>
<polygon fill="none" stroke="#000000" points="606,-192.5901 606,-244.5901 746,-244.5901 746,-192.5901 606,-192.5901"/>
</g>
<g id="clust6" class="cluster">
<title>cluster_AppModule_bootstrap</title>
<polygon fill="none" stroke="#000000" points="683,-322.5901 683,-374.5901 807,-374.5901 807,-322.5901 683,-322.5901"/>
</g>
<g id="clust8" class="cluster">
<title>cluster_CodemirrorModule</title>
<polygon fill="none" stroke="#000000" stroke-dasharray="1,5" points="8,-70 8,-252.5901 590,-252.5901 590,-70 8,-70"/>
</g>
<g id="clust9" class="cluster">
<title>cluster_CodemirrorModule_declarations</title>
<polygon fill="none" stroke="#000000" points="227,-192.5901 227,-244.5901 389,-244.5901 389,-192.5901 227,-192.5901"/>
</g>
<g id="clust10" class="cluster">
<title>cluster_CodemirrorModule_CodemirrorComponent_providers</title>
<polygon fill="none" stroke="#000000" points="16,-78 16,-176.5901 214,-176.5901 214,-78 16,-78"/>
</g>
<g id="clust12" class="cluster">
<title>cluster_CodemirrorModule_exports</title>
<polygon fill="none" stroke="#000000" points="416,-101.295 416,-153.295 582,-153.295 582,-101.295 416,-101.295"/>
</g>
<g id="clust14" class="cluster">
<title>cluster_CodemirrorModule_providers</title>
<polygon fill="none" stroke="#000000" points="222,-101.295 222,-153.295 408,-153.295 408,-101.295 222,-101.295"/>
</g>
<!-- AppComponent -->
<g id="node1" class="node">
<title>AppComponent</title>
<polygon fill="#ffffb3" stroke="#000000" points="867.9399,-236.5901 762.0601,-236.5901 762.0601,-200.5901 867.9399,-200.5901 867.9399,-236.5901"/>
<text text-anchor="middle" x="815" y="-214.3901" font-family="Times,serif" font-size="14.00" fill="#000000">AppComponent</text>
</g>
<!-- AppModule -->
<g id="node2" class="node">
<title>AppModule</title>
<polygon fill="#8dd3c7" stroke="#000000" points="786.6571,-301.5901 783.6571,-305.5901 762.6571,-305.5901 759.6571,-301.5901 703.3429,-301.5901 703.3429,-265.5901 786.6571,-265.5901 786.6571,-301.5901"/>
<text text-anchor="middle" x="745" y="-279.3901" font-family="Times,serif" font-size="14.00" fill="#000000">AppModule</text>
</g>
<!-- AppComponent&#45;&gt;AppModule -->
<g id="edge1" class="edge">
<title>AppComponent&#45;&gt;AppModule</title>
<path fill="none" stroke="#000000" d="M774.5544,-236.6962C774.5544,-236.6962 774.5544,-255.581 774.5544,-255.581"/>
<polygon fill="#000000" stroke="#000000" points="771.0544,-255.581 774.5544,-265.581 778.0544,-255.5811 771.0544,-255.581"/>
</g>
<!-- AppComponent  -->
<g id="node4" class="node">
<title>AppComponent </title>
<polygon fill="#80b1d3" stroke="#000000" points="799.439,-366.5901 690.561,-366.5901 690.561,-330.5901 799.439,-330.5901 799.439,-366.5901"/>
<text text-anchor="middle" x="745" y="-344.3901" font-family="Times,serif" font-size="14.00" fill="#000000">AppComponent </text>
</g>
<!-- AppModule&#45;&gt;AppComponent  -->
<g id="edge3" class="edge">
<title>AppModule&#45;&gt;AppComponent </title>
<path fill="none" stroke="#000000" stroke-dasharray="1,5" d="M745,-301.6962C745,-301.6962 745,-320.581 745,-320.581"/>
<polygon fill="#000000" stroke="#000000" points="741.5001,-320.581 745,-330.581 748.5001,-320.5811 741.5001,-320.581"/>
</g>
<!-- CodemirrorModule -->
<g id="node3" class="node">
<title>CodemirrorModule</title>
<polygon fill="#8dd3c7" stroke="#000000" points="738.3641,-236.5901 735.3641,-240.5901 714.3641,-240.5901 711.3641,-236.5901 613.6359,-236.5901 613.6359,-200.5901 738.3641,-200.5901 738.3641,-236.5901"/>
<text text-anchor="middle" x="676" y="-214.3901" font-family="Times,serif" font-size="14.00" fill="#000000">CodemirrorModule</text>
</g>
<!-- CodemirrorModule&#45;&gt;AppModule -->
<g id="edge2" class="edge">
<title>CodemirrorModule&#45;&gt;AppModule</title>
<path fill="none" stroke="#000000" d="M720.8019,-236.6962C720.8019,-236.6962 720.8019,-255.581 720.8019,-255.581"/>
<polygon fill="#000000" stroke="#000000" points="717.302,-255.581 720.8019,-265.581 724.302,-255.5811 717.302,-255.581"/>
</g>
<!-- CodemirrorComponent  -->
<g id="node7" class="node">
<title>CodemirrorComponent </title>
<polygon fill="#fb8072" stroke="#000000" points="574.1467,-145.295 423.8533,-145.295 423.8533,-109.295 574.1467,-109.295 574.1467,-145.295"/>
<text text-anchor="middle" x="499" y="-123.095" font-family="Times,serif" font-size="14.00" fill="#000000">CodemirrorComponent </text>
</g>
<!-- CodemirrorModule&#45;&gt;CodemirrorComponent  -->
<g id="edge6" class="edge">
<title>CodemirrorModule&#45;&gt;CodemirrorComponent </title>
<path fill="none" stroke="#000000" stroke-dasharray="5,2" d="M676,-200.1749C676,-173.5844 676,-127.5901 676,-127.5901 676,-127.5901 584.3206,-127.5901 584.3206,-127.5901"/>
<polygon fill="#000000" stroke="#000000" points="584.3206,-124.0902 574.3206,-127.5901 584.3206,-131.0902 584.3206,-124.0902"/>
</g>
<!-- CodemirrorComponent -->
<g id="node5" class="node">
<title>CodemirrorComponent</title>
<polygon fill="#ffffb3" stroke="#000000" points="381.147,-236.5901 234.853,-236.5901 234.853,-200.5901 381.147,-200.5901 381.147,-236.5901"/>
<text text-anchor="middle" x="308" y="-214.3901" font-family="Times,serif" font-size="14.00" fill="#000000">CodemirrorComponent</text>
</g>
<!-- CodemirrorComponent&#45;&gt;CodemirrorModule -->
<g id="edge4" class="edge">
<title>CodemirrorComponent&#45;&gt;CodemirrorModule</title>
<path fill="none" stroke="#000000" d="M381.5858,-224.5901C381.5858,-224.5901 603.5543,-224.5901 603.5543,-224.5901"/>
<polygon fill="#000000" stroke="#000000" points="603.5543,-228.0902 613.5543,-224.5901 603.5543,-221.0902 603.5543,-228.0902"/>
</g>
<!-- {
 &#160;&#160;&#160;: , : (() =&gt; ), : true
} -->
<g id="node6" class="node">
<title>{
 &#160;&#160;&#160;: , : (() =&gt; ), : true
}</title>
<ellipse fill="#fdb462" stroke="#000000" cx="115" cy="-127.295" rx="91.4557" ry="41.0911"/>
<text text-anchor="middle" x="115" y="-139.895" font-family="Times,serif" font-size="14.00" fill="#000000">{</text>
<text text-anchor="middle" x="115" y="-123.095" font-family="Times,serif" font-size="14.00" fill="#000000"> &#160;&#160;&#160;: , : (() =&gt; ), : true</text>
<text text-anchor="middle" x="115" y="-106.295" font-family="Times,serif" font-size="14.00" fill="#000000">}</text>
</g>
<!-- {
 &#160;&#160;&#160;: , : (() =&gt; ), : true
}&#45;&gt;CodemirrorComponent -->
<g id="edge5" class="edge">
<title>{
 &#160;&#160;&#160;: , : (() =&gt; ), : true
}&#45;&gt;CodemirrorComponent</title>
<path fill="none" stroke="#000000" d="M177.395,-157.5901C233.7828,-157.5901 308,-157.5901 308,-157.5901 308,-157.5901 308,-190.2881 308,-190.2881"/>
<polygon fill="#000000" stroke="#000000" points="304.5001,-190.288 308,-200.2881 311.5001,-190.2881 304.5001,-190.288"/>
</g>
<!-- CodemirrorService -->
<g id="node8" class="node">
<title>CodemirrorService</title>
<ellipse fill="#fdb462" stroke="#000000" cx="315" cy="-127.295" rx="85.0889" ry="18"/>
<text text-anchor="middle" x="315" y="-123.095" font-family="Times,serif" font-size="14.00" fill="#000000">CodemirrorService</text>
</g>
<!-- CodemirrorService&#45;&gt;CodemirrorModule -->
<g id="edge7" class="edge">
<title>CodemirrorService&#45;&gt;CodemirrorModule</title>
<path fill="none" stroke="#000000" d="M390.6839,-135.7853C390.6839,-157.3597 390.6839,-212.5901 390.6839,-212.5901 390.6839,-212.5901 603.3862,-212.5901 603.3862,-212.5901"/>
<polygon fill="#000000" stroke="#000000" points="603.3862,-216.0902 613.3862,-212.5901 603.3861,-209.0902 603.3862,-216.0902"/>
</g>
</g>
</svg>
