<?xml version="1.0" encoding="UTF-8" standalone="no"?>
<!DOCTYPE svg PUBLIC "-//W3C//DTD SVG 1.1//EN"
 "http://www.w3.org/Graphics/SVG/1.1/DTD/svg11.dtd">
<!-- Generated by graphviz version 2.40.1 (20161225.0304)
 -->
<!-- Title: dependencies Pages: 1 -->
<svg width="504pt" height="396pt"
 viewBox="0.00 0.00 504.00 395.59" xmlns="http://www.w3.org/2000/svg" xmlns:xlink="http://www.w3.org/1999/xlink">
<g id="graph0" class="graph" transform="scale(1 1) rotate(0) translate(4 391.5901)">
<title>dependencies</title>
<polygon fill="#ffffff" stroke="transparent" points="-4,4 -4,-391.5901 500,-391.5901 500,4 -4,4"/>
<text text-anchor="start" x="227.0091" y="-42.4" font-family="sans-serif" font-weight="bold" font-size="14.00" fill="#000000">Legend</text>
<polygon fill="#ffffb3" stroke="transparent" points="14,-10 14,-30 34,-30 34,-10 14,-10"/>
<text text-anchor="start" x="37.629" y="-15.4" font-family="sans-serif" font-size="14.00" fill="#000000"> &#160;Declarations</text>
<polygon fill="#8dd3c7" stroke="transparent" points="127,-10 127,-30 147,-30 147,-10 127,-10"/>
<text text-anchor="start" x="150.7251" y="-15.4" font-family="sans-serif" font-size="14.00" fill="#000000"> &#160;Module</text>
<polygon fill="#80b1d3" stroke="transparent" points="213,-10 213,-30 233,-30 233,-10 213,-10"/>
<text text-anchor="start" x="236.7812" y="-15.4" font-family="sans-serif" font-size="14.00" fill="#000000"> &#160;Bootstrap</text>
<polygon fill="#fdb462" stroke="transparent" points="310,-10 310,-30 330,-30 330,-10 310,-10"/>
<text text-anchor="start" x="333.6732" y="-15.4" font-family="sans-serif" font-size="14.00" fill="#000000"> &#160;Providers</text>
<polygon fill="#fb8072" stroke="transparent" points="406,-10 406,-30 426,-30 426,-10 406,-10"/>
<text text-anchor="start" x="429.7258" y="-15.4" font-family="sans-serif" font-size="14.00" fill="#000000"> &#160;Exports</text>
<g id="clust1" class="cluster">
<title>cluster_CodemirrorModule</title>
<polygon fill="none" stroke="#000000" stroke-dasharray="1,5" points="62,-70 62,-379.5901 434,-379.5901 434,-70 62,-70"/>
</g>
<g id="clust2" class="cluster">
<title>cluster_CodemirrorModule_declarations</title>
<polygon fill="none" stroke="#000000" points="264,-189.5901 264,-241.5901 426,-241.5901 426,-189.5901 264,-189.5901"/>
</g>
<g id="clust3" class="cluster">
<title>cluster_CodemirrorModule_CodemirrorComponent_providers</title>
<polygon fill="none" stroke="#000000" points="228,-78 228,-176.5901 426,-176.5901 426,-78 228,-78"/>
</g>
<g id="clust5" class="cluster">
<title>cluster_CodemirrorModule_exports</title>
<polygon fill="none" stroke="#000000" points="170,-319.5901 170,-371.5901 336,-371.5901 336,-319.5901 170,-319.5901"/>
</g>
<g id="clust7" class="cluster">
<title>cluster_CodemirrorModule_providers</title>
<polygon fill="none" stroke="#000000" points="70,-189.5901 70,-241.5901 256,-241.5901 256,-189.5901 70,-189.5901"/>
</g>
<!-- CodemirrorComponent -->
<g id="node1" class="node">
<title>CodemirrorComponent</title>
<polygon fill="#ffffb3" stroke="#000000" points="418.147,-233.5901 271.853,-233.5901 271.853,-197.5901 418.147,-197.5901 418.147,-233.5901"/>
<text text-anchor="middle" x="345" y="-211.3901" font-family="Times,serif" font-size="14.00" fill="#000000">CodemirrorComponent</text>
</g>
<!-- CodemirrorModule -->
<g id="node2" class="node">
<title>CodemirrorModule</title>
<polygon fill="#8dd3c7" stroke="#000000" points="315.3641,-298.5901 312.3641,-302.5901 291.3641,-302.5901 288.3641,-298.5901 190.6359,-298.5901 190.6359,-262.5901 315.3641,-262.5901 315.3641,-298.5901"/>
<text text-anchor="middle" x="253" y="-276.3901" font-family="Times,serif" font-size="14.00" fill="#000000">CodemirrorModule</text>
</g>
<!-- CodemirrorComponent&#45;&gt;CodemirrorModule -->
<g id="edge1" class="edge">
<title>CodemirrorComponent&#45;&gt;CodemirrorModule</title>
<path fill="none" stroke="#000000" d="M293.5544,-233.6962C293.5544,-233.6962 293.5544,-252.581 293.5544,-252.581"/>
<polygon fill="#000000" stroke="#000000" points="290.0544,-252.581 293.5544,-262.581 297.0544,-252.5811 290.0544,-252.581"/>
</g>
<!-- CodemirrorComponent  -->
<g id="node4" class="node">
<title>CodemirrorComponent </title>
<polygon fill="#fb8072" stroke="#000000" points="328.1467,-363.5901 177.8533,-363.5901 177.8533,-327.5901 328.1467,-327.5901 328.1467,-363.5901"/>
<text text-anchor="middle" x="253" y="-341.3901" font-family="Times,serif" font-size="14.00" fill="#000000">CodemirrorComponent </text>
</g>
<!-- CodemirrorModule&#45;&gt;CodemirrorComponent  -->
<g id="edge3" class="edge">
<title>CodemirrorModule&#45;&gt;CodemirrorComponent </title>
<path fill="none" stroke="#000000" stroke-dasharray="5,2" d="M253,-298.6962C253,-298.6962 253,-317.581 253,-317.581"/>
<polygon fill="#000000" stroke="#000000" points="249.5001,-317.581 253,-327.581 256.5001,-317.5811 249.5001,-317.581"/>
</g>
<!-- {
 &#160;&#160;&#160;: , : (() =&gt; ), : true
} -->
<g id="node3" class="node">
<title>{
 &#160;&#160;&#160;: , : (() =&gt; ), : true
}</title>
<ellipse fill="#fdb462" stroke="#000000" cx="327" cy="-127.295" rx="91.4557" ry="41.0911"/>
<text text-anchor="middle" x="327" y="-139.895" font-family="Times,serif" font-size="14.00" fill="#000000">{</text>
<text text-anchor="middle" x="327" y="-123.095" font-family="Times,serif" font-size="14.00" fill="#000000"> &#160;&#160;&#160;: , : (() =&gt; ), : true</text>
<text text-anchor="middle" x="327" y="-106.295" font-family="Times,serif" font-size="14.00" fill="#000000">}</text>
</g>
<!-- {
 &#160;&#160;&#160;: , : (() =&gt; ), : true
}&#45;&gt;CodemirrorComponent -->
<g id="edge2" class="edge">
<title>{
 &#160;&#160;&#160;: , : (() =&gt; ), : true
}&#45;&gt;CodemirrorComponent</title>
<path fill="none" stroke="#000000" d="M345,-167.8247C345,-167.8247 345,-187.3455 345,-187.3455"/>
<polygon fill="#000000" stroke="#000000" points="341.5001,-187.3455 345,-197.3455 348.5001,-187.3455 341.5001,-187.3455"/>
</g>
<!-- CodemirrorService -->
<g id="node5" class="node">
<title>CodemirrorService</title>
<ellipse fill="#fdb462" stroke="#000000" cx="163" cy="-215.5901" rx="85.0889" ry="18"/>
<text text-anchor="middle" x="163" y="-211.3901" font-family="Times,serif" font-size="14.00" fill="#000000">CodemirrorService</text>
</g>
<!-- CodemirrorService&#45;&gt;CodemirrorModule -->
<g id="edge4" class="edge">
<title>CodemirrorService&#45;&gt;CodemirrorModule</title>
<path fill="none" stroke="#000000" d="M219.3062,-229.3749C219.3062,-229.3749 219.3062,-252.1375 219.3062,-252.1375"/>
<polygon fill="#000000" stroke="#000000" points="215.8063,-252.1375 219.3062,-262.1375 222.8063,-252.1376 215.8063,-252.1375"/>
</g>
</g>
</svg>
